#!OML:ASF X:\für Bonn\!DataBase\2005_08_11_Bastian_Final\c3d\Bastian.ASF
:FULLY-SPECIFIED
:DEGREES
159
root 6.75263 12.896 -2.9282 819.076 77.8778 -268.165
lowerback 69.1476 -12.5697 15.0388
upperback 11.4195 2.13333 5.69355
thorax -7.45112 2.25654 -0.283004
lowerneck -1.32103 -8.11061 2.9611
upperneck -33.2741 -10.0031 3.8453
head -10.402 -5.11255 1.62816
rclavicle -1.24042e-013 -1.56816e-013
rhumerus 35.0469 -12.2859 -49.7364
rradius 17.1798
rwrist 13.9956
rhand -44.6048 2.16048
rfingers 7.12502
rthumb -17.4034 -27.0804
lclavicle -1.24042e-013 -1.56816e-013
lhumerus 16.9818 -30.9224 68.9117
lradius 57.4558
lwrist 13.9289
lhand -10.5933 -11.9678
lfingers 7.12502
lthumb 15.4123 17.4377
rfemur -73.2796 -9.44662 6.2784
rtibia 100.439
rfoot -24.8586 -5.42772
rtoes -15.654
lfemur -63.1888 1.35469 -39.0558
ltibia 94.8945
lfoot -28.209 -13.2694
ltoes 15.5382
160
root 6.77693 13.0019 -2.91696 819.56 77.9129 -267.873
lowerback 68.8819 -12.4822 15.025
upperback 11.4428 2.12352 5.66446
thorax -7.44281 2.25044 -0.326701
lowerneck -1.3376 -8.08522 2.78555
upperneck -33.4038 -9.99298 3.7517
head -10.4429 -5.06429 1.62472
rclavicle -3.81667e-014 8.3092e-014
rhumerus 35.1744 -12.0582 -49.9046
rradius 16.6769
rwrist 13.8753
rhand -44.013 1.54658
rfingers 7.12502
rthumb -16.8337 -27.7437
lclavicle -3.81667e-014 8.3092e-014
lhumerus 16.7807 -31.0177 69.2375
lradius 57.016
lwrist 13.926
lhand -10.5937 -11.967
lfingers 7.12502
lthumb 15.4119 17.4384
rfemur -72.6526 -9.25101 6.30042
rtibia 99.4819
rfoot -24.7162 -5.62243
rtoes -15.6977
lfemur -62.6097 1.24419 -38.8898
ltibia 93.7853
lfoot -27.8821 -13.2079
ltoes 15.2028
161
root 6.80312 13.1087 -2.90505 820.098 77.9143 -267.485
lowerback 68.596 -12.3973 14.9923
upperback 11.4886 2.097 5.63439
thorax -7.41152 2.24138 -0.358721
lowerneck -1.35542 -8.05881 2.65586
upperneck -33.552 -9.98128 3.64238
head -10.4952 -5.01826 1.60896
rclavicle -9.54166e-015 -9.0944e-015
rhumerus 35.0847 -11.3922 -49.6577
rradius 16.433
rwrist 13.1639
rhand -43.4543 0.882569
rfingers 7.12502
rthumb -16.2958 -28.4527
lclavicle -9.54166e-015 -9.0944e-015
lhumerus 16.6194 -31.1365 69.5107
lradius 56.5604
lwrist 13.9261
lhand -10.6161 -12.0075
lfingers 7.12502
lthumb 15.3903 17.3997
rfemur -71.9658 -9.06784 6.2657
rtibia 98.5178
rfoot -24.5737 -5.75482
rtoes -15.4931
lfemur -61.943 1.12288 -38.7532
ltibia 92.6379
lfoot -27.5932 -13.1286
ltoes 14.7368
162
root 6.83189 13.2202 -2.89341 820.56 77.9242 -267.111
lowerback 68.3078 -12.3111 14.9402
upperback 11.5787 2.06514 5.60961
thorax -7.33087 2.23677 -0.374929
lowerneck -1.42929 -8.02243 2.47126
upperneck -33.6567 -9.94942 3.56331
head -10.5147 -4.95934 1.606
rclavicle 9.54166e-015 -1.53561e-014
rhumerus 35.0095 -10.7799 -49.4786
rradius 16.2263
rwrist 12.5979
rhand -42.9857 0.441321
rfingers 7.12502
rthumb -15.8446 -28.9303
lclavicle 9.54166e-015 -1.53561e-014
lhumerus 16.4579 -31.2802 69.7392
lradius 56.14
lwrist 13.9872
lhand -10.6814 -11.9997
lfingers 7.12502
lthumb 15.3273 17.4123
rfemur -71.1565 -8.86784 6.23209
rtibia 97.5036
rfoot -24.4407 -5.9046
rtoes -15.2069
lfemur -61.1762 1.00741 -38.5917
ltibia 91.4508
lfoot -27.2684 -13.069
ltoes 14.5382
163
root 6.86207 13.3315 -2.882 821.214 77.9909 -266.549
lowerback 67.9467 -12.2611 14.9563
upperback 11.6991 2.02502 5.58566
thorax -7.2087 2.23423 -0.412936
lowerneck -1.49995 -7.99342 2.29734
upperneck -33.8079 -9.92137 3.5006
head -10.5529 -4.9036 1.6093
rclavicle 9.54166e-014 1.62606e-013
rhumerus 34.8045 -9.93151 -49.08
rradius 16.2306
rwrist 11.666
rhand -42.5193 0.201656
rfingers 7.12502
rthumb -15.3954 -29.2051
lclavicle 9.54166e-014 1.62606e-013
lhumerus 16.2885 -31.4582 69.9185
lradius 55.8216
lwrist 14.1371
lhand -10.7709 -11.8378
lfingers 7.12502
lthumb 15.2412 17.5807
rfemur -70.3329 -8.64885 6.25481
rtibia 96.4707
rfoot -24.2951 -6.10652
rtoes -15.1536
lfemur -60.4065 0.893537 -38.3798
ltibia 90.2579
lfoot -26.9755 -13.0085
ltoes 14.1718
164
root 6.89533 13.4449 -2.87058 821.811 78.086 -266.009
lowerback 67.57 -12.1875 14.9573
upperback 11.8515 2.00448 5.59252
thorax -7.05307 2.24155 -0.419554
lowerneck -1.61116 -7.97293 2.05102
upperneck -33.9193 -9.90295 3.4692
head -10.5613 -4.84744 1.63228
rclavicle -1.27222e-014 2.25621e-014
rhumerus 34.6069 -9.13215 -48.7389
rradius 16.2918
rwrist 10.9376
rhand -42.281 0.137055
rfingers 7.12502
rthumb -15.1658 -29.2872
lclavicle -1.27222e-014 2.25621e-014
lhumerus 16.1149 -31.6163 70.1427
lradius 55.45
lwrist 14.2478
lhand -10.9224 -11.7248
lfingers 7.12502
lthumb 15.0952 17.7048
rfemur -69.4497 -8.42451 6.31264
rtibia 95.4173
rfoot -24.1872 -6.27551
rtoes -14.9071
lfemur -59.5727 0.790618 -38.1324
ltibia 89.0454
lfoot -26.7046 -12.9136
ltoes 13.6128
